<?xml version="1.0" encoding="UTF-8"?>
<svg width="22px" height="36px" viewBox="0 0 22 36" version="1.1" xmlns="http://www.w3.org/2000/svg" xmlns:xlink="http://www.w3.org/1999/xlink">
    <!-- Generator: Sketch 40.3 (33839) - http://www.bohemiancoding.com/sketch -->
    <title>Path</title>
    <desc>Created with Sketch.</desc>
    <defs>
        <path d="M5.25181901,27.5233209 C5.25181901,23.5934642 6.58425175,22.713941 6.56568988,17.8589298 C6.54712802,13.0039186 4.25288116,9.72558341 5.25181901,6.9199571 C6.25075686,4.11433079 8.27430981,3 10.3470517,3 C12.6638822,3 16.7133911,4.91425883 16.5798175,10.3044043 C16.4561841,15.2934344 15.795888,21.2924113 15.2183045,25.1433801 C14.6407211,28.9943489 13.8001778,33 10.7915205,33 C8.25396394,33 5.25181901,31.4531777 5.25181901,27.5233209 Z" id="path-1"></path>
        <mask id="mask-2" maskContentUnits="userSpaceOnUse" maskUnits="objectBoundingBox" x="-3" y="-3" width="17.583041" height="36">
            <rect x="2" y="0" width="17.583041" height="36" fill="white"></rect>
            <use xlink:href="#path-1" fill="black"></use>
        </mask>
    </defs>
    <g id="Page-1" stroke="none" stroke-width="1" fill="none" fill-rule="evenodd">
        <g id="Path" transform="translate(10.791520, 18.000000) scale(-1, 1) rotate(11.000000) translate(-10.791520, -18.000000) ">
            <use fill="#262626" fill-rule="evenodd" xlink:href="#path-1"></use>
            <use stroke="#FF0000" mask="url(#mask-2)" stroke-width="6" xlink:href="#path-1"></use>
        </g>
    </g>
</svg>